<?xml version="1.0" encoding="UTF-8" standalone="no"?>
<!-- Generator: Adobe Illustrator 26.0.3, SVG Export Plug-In . SVG Version: 6.00 Build 0)  -->

<svg
   version="1.0"
   id="katman_1"
   x="0px"
   y="0px"
   viewBox="0 0 136360.77 148105.19"
   xml:space="preserve"
   width="136360.77"
   height="148105.19"
   xmlns="http://www.w3.org/2000/svg"
   xmlns:svg="http://www.w3.org/2000/svg"><defs
   id="defs13" />
<style
   type="text/css"
   id="style1">
	.st0{fill:#010202;}
	.st1{fill:#FFDD06;}
</style>
<path
   class="st0"
   d="m -111547.23,-27205.018 -0.2,-0.1 -0.5,-0.2 c 0.1,0.2 0.4,0.3 0.7,0.3 z"
   id="path1" />
<path
   class="st0"
   d="m -111543.93,-27181.418 -0.3,0.1 z"
   id="path2" />
<path
   class="st0"
   d="m -111547.23,-27205.118 c 0,0 0,0 0,0 -0.1,0 -0.1,0 0,0 z"
   id="path3" />
<path
   class="st0"
   d="m -111544.23,-27181.618 0.4,-0.2 0.1,-0.1 0.1,-0.1 c -0.2,0.1 -0.4,0.3 -0.6,0.4 z"
   id="path4" />
<path
   class="st0"
   d="m -111546.63,-27204.518 -0.4,-0.4 -0.3,-0.1 c 0.2,0.2 0.4,0.4 0.7,0.5 z"
   id="path5" />
<path
   class="st0"
   d="m -111640.33,-26976.118 c -0.3,0.1 -0.6,0.3 -0.8,0.6 l 0.2,-0.2 c 0.3,-0.2 0.5,-0.3 0.6,-0.4 z"
   id="path6" />
<path
   class="st0"
   d="m -111585.83,-26986.918 c 0,-0.3 -0.2,-0.3 -0.1,0.9 0,-0.1 0,-0.2 0.1,-0.3 -0.1,-0.1 -0.1,-0.3 0,-0.6 z"
   id="path7" />
<path
   class="st0"
   d="m -111591.53,-26976.118 c -0.3,0.1 -0.6,0.3 -0.8,0.6 l 0.2,-0.2 c 0.3,-0.2 0.5,-0.3 0.6,-0.4 z"
   id="path8" />
<path
   class="st0"
   d="m -111678.63,-26973.618 c -0.2,-0.2 -0.5,-0.3 -0.8,-0.4 0.2,0.1 0.5,0.2 0.6,0.3 z"
   id="path9" />
<path
   class="st0"
   d="m -111687.13,-26981.818 c 0,-0.3 -0.1,-0.7 -0.3,-1 0.1,0.3 0.2,0.6 0.3,1 z"
   id="path10" />
<path
   class="st1"
   d="m -111629.33,-27129.518 c -11.8,5.1 -25.3,10.8 -42.7,10.8 -7.3,0 -14.5,-1 -21.5,-3 l 12,123.6 c 0.4,5.2 2.8,10 6.6,13.5 3.8,3.5 8.8,5.5 14,5.5 0,0 17.1,0.9 22.8,0.9 6.1,0 24.5,-0.9 24.5,-0.9 5.2,0 10.2,-1.9 14,-5.5 3.8,-3.5 6.2,-8.3 6.6,-13.5 l 12.9,-136.5 c -5.8,-2 -11.6,-3.3 -18.1,-3.3 -11.4,0 -20.5,3.9 -31.1,8.4 z"
   id="path11" />
<path
   class="st0"
   d="m -111730.83,-27182.118 0.2,0.2 0.1,0.1 c 0,-0.2 -0.1,-0.3 -0.3,-0.3 z"
   id="path12" />
<path
   class="st0"
   d="m -111524.53,-27193.618 -1.8,-9.1 c -1.6,-8.2 -5.3,-16 -13.7,-18.9 -2.7,-0.9 -5.8,-1.4 -7.8,-3.3 -2.1,-2 -2.7,-5 -3.2,-7.8 -0.9,-5.2 -1.7,-10.4 -2.6,-15.6 -0.8,-4.5 -1.4,-9.5 -3.4,-13.5 -2.7,-5.5 -8.2,-8.7 -13.7,-10.8 -2.8,-1 -5.7,-1.9 -8.6,-2.7 -13.7,-3.6 -28.1,-4.9 -42.2,-5.7 -16.9,-0.9 -33.9,-0.7 -50.8,0.8 -12.6,1.1 -25.8,2.5 -37.7,6.9 -4.4,1.6 -8.9,3.5 -12.2,6.9 -4.1,4.1 -5.4,10.6 -2.4,15.7 2.1,3.7 5.7,6.3 9.5,8 4.9,2.2 10.1,3.9 15.4,5 14.8,3.3 30,4.5 45.1,5.1 16.7,0.7 33.4,0.1 50.1,-1.6 4.1,-0.5 8.2,-1 12.3,-1.6 4.8,-0.7 7.9,-7.1 6.5,-11.4 -1.7,-5.3 -6.3,-7.3 -11.4,-6.5 -0.8,0.1 -1.5,0.2 -2.3,0.3 l -0.5,0.1 c -1.8,0.2 -3.5,0.4 -5.3,0.6 -3.6,0.4 -7.2,0.7 -10.9,1 -8.1,0.6 -16.3,0.8 -24.5,0.8 -8,0 -16,-0.2 -24,-0.8 -3.7,-0.2 -7.3,-0.5 -10.9,-0.9 -1.7,-0.2 -3.3,-0.4 -4.9,-0.6 l -1.6,-0.2 h -0.3 l -1.6,-0.2 c -3.3,-0.5 -6.6,-1.1 -9.9,-1.8 -0.3,-0.1 -0.6,-0.3 -0.8,-0.5 -0.2,-0.2 -0.3,-0.6 -0.3,-0.9 0,-0.3 0.1,-0.7 0.3,-0.9 0.2,-0.2 0.5,-0.4 0.8,-0.5 h 0.1 c 2.8,-0.6 5.7,-1.1 8.6,-1.6 1,-0.2 1.9,-0.3 2.9,-0.4 v 0 c 1.8,-0.1 3.6,-0.4 5.4,-0.7 15.6,-1.6 31.3,-2.2 47,-1.7 7.6,0.2 15.2,0.7 22.8,1.4 1.6,0.2 3.3,0.3 4.9,0.5 0.6,0.1 1.2,0.2 1.9,0.2 l 1.3,0.2 c 3.7,0.5 7.3,1.2 11,2 5.4,1.2 12.3,1.6 14.7,7.4 0.8,1.9 1.1,3.9 1.5,5.9 l 0.5,2.5 c 0,0 0,0.1 0,0.1 1.3,5.9 2.5,11.8 3.8,17.7 0.1,0.4 0.1,0.9 0,1.3 -0.1,0.4 -0.3,0.9 -0.5,1.2 -0.3,0.4 -0.6,0.7 -1,0.9 -0.4,0.2 -0.8,0.4 -1.2,0.4 v 0 l -0.8,0.1 -0.8,0.1 c -2.4,0.3 -4.9,0.6 -7.3,0.9 -4.8,0.5 -9.6,1 -14.4,1.4 -9.6,0.8 -19.1,1.3 -28.7,1.6 -4.9,0.1 -9.8,0.2 -14.7,0.2 -19.5,0 -38.9,-1.1 -58.2,-3.4 -2.1,-0.2 -4.2,-0.5 -6.3,-0.8 1.6,0.2 -1.2,-0.2 -1.7,-0.2 -1.3,-0.2 -2.7,-0.4 -4,-0.6 -4.5,-0.7 -8.9,-1.5 -13.4,-2.2 -5.4,-0.9 -10.5,-0.4 -15.4,2.2 -4,2.2 -7.2,5.5 -9.3,9.6 -2.1,4.3 -2.7,9.1 -3.7,13.7 -0.9,4.7 -2.4,9.7 -1.8,14.5 1.2,10.3 8.4,18.7 18.8,20.6 9.8,1.8 19.6,3.2 29.5,4.4 38.7,4.7 77.9,5.3 116.7,1.7 3.2,-0.3 6.3,-0.6 9.5,-1 1,-0.1 2,0 2.9,0.3 0.9,0.3 1.8,0.9 2.5,1.6 0.7,0.7 1.2,1.5 1.6,2.5 0.3,0.9 0.5,1.9 0.4,2.9 l -1,9.6 c -2,19.3 -4,38.6 -5.9,58 -2.1,20.3 -4.1,40.6 -6.2,60.9 -0.6,5.7 -1.2,11.4 -1.8,17.1 -0.6,5.6 -0.6,11.4 -1.7,17 -1.7,8.7 -7.6,14.1 -16.2,16.1 -7.9,1.8 -16,2.7 -24.1,2.8 -9,0 -18,-0.3 -27,-0.3 -9.6,0.1 -21.4,-0.8 -28.8,-8 -6.5,-6.3 -7.4,-16.1 -8.3,-24.6 -1.2,-11.2 -2.4,-22.5 -3.5,-33.7 l -6.5,-62.5 -4.2,-40.5 c -0.1,-0.7 -0.1,-1.3 -0.2,-2 -0.5,-4.8 -3.9,-9.5 -9.3,-9.3 -4.6,0.2 -9.8,4.1 -9.3,9.3 l 3.1,30 6.5,62 c 1.8,17.6 3.7,35.2 5.5,52.9 0.4,3.4 0.7,6.8 1.1,10.1 2,18.5 16.1,28.4 33.6,31.2 10.2,1.6 20.6,2 31,2.1 13.3,0.2 26.7,0.7 39.7,-1.7 19.3,-3.5 33.8,-16.4 35.9,-36.5 0.6,-5.8 1.2,-11.6 1.8,-17.3 2,-19.1 3.9,-38.2 5.9,-57.4 l 6.4,-62.5 2.9,-28.6 c 0.1,-1.4 0.7,-2.8 1.7,-3.8 1,-1 2.2,-1.8 3.6,-2 5.5,-1.1 10.8,-2.9 14.7,-7.1 5.8,-6.6 7,-15.3 4.8,-24.1 z m -207.8,6.2 c 0.1,0 -0.1,0.7 -0.1,1 -0.1,-0.5 -0.1,-1 0.1,-1 z m 0.5,4.1 c 0,0 0.2,0.1 0.3,0.4 -0.2,-0.2 -0.3,-0.4 -0.3,-0.4 z m 0.5,0.7 c 0.2,0.4 0.3,0.6 0,0 z m 1.1,0.9 v 0 c 0,0 0.1,0 0,0 z m 185.4,-1.3 c -2,1.9 -5,2.8 -7.9,3.2 -33.1,4.9 -66.8,7.4 -100.3,6.3 -24,-0.8 -47.7,-3.5 -71.5,-6.8 -2.3,-0.3 -4.8,-0.8 -6.4,-2.5 -3,-3.2 -1.5,-9.7 -0.7,-13.7 0.7,-3.6 2.1,-8.4 6.4,-8.9 6.6,-0.8 14.4,2 20.9,3 7.9,1.2 15.9,2.2 23.8,2.9 34,3.1 68.7,2.6 102.5,-1.9 6.2,-0.8 12.3,-1.8 18.5,-2.9 5.5,-1 11.5,-2.8 14.8,2.8 2.3,3.9 2.6,9 2.2,13.4 0,2 -0.9,3.8 -2.3,5.1 z"
   id="path13"
   style="fill:#ffffff;fill-opacity:1" />
</svg>
