<?xml version="1.0" encoding="utf-8"?>
<!-- Generator: Adobe Illustrator 23.1.0, SVG Export Plug-In . SVG Version: 6.00 Build 0)  -->
<svg version="1.1" id="common_logo" xmlns="http://www.w3.org/2000/svg" xmlns:xlink="http://www.w3.org/1999/xlink" x="0px"
	 y="0px" viewBox="0 0 935 133.4" style="enable-background:new 0 0 935 133.4;" xml:space="preserve">
<style type="text/css">
	.st0{fill-rule:evenodd;clip-rule:evenodd;}
</style>
<g>
	<path class="st0" d="M142.8,131V62.5c0-19.5-10.4-28.7-27.9-28.7c-14.5,0-27.1,8.6-32.6,17.3C78.8,40.3,69.9,33.8,56,33.8
		c-14.5,0-27.1,9-31,14.7V36.2H0V131h25V67.2C28.7,61.9,36,56,44.6,56c10.2,0,14.1,6.3,14.1,15.1V131h25.1V67
		c3.5-5.1,10.8-11,19.6-11c10.2,0,14.1,6.3,14.1,15.1V131H142.8z M211.4,133.4c-31.2,0-50.1-22.8-50.1-49.9
		c0-26.9,18.9-49.7,50.1-49.7c31.4,0,50.3,22.8,50.3,49.7C261.7,110.6,242.8,133.4,211.4,133.4z M211.4,111.2
		c15.5,0,24.4-12.8,24.4-27.7c0-14.7-8.8-27.5-24.4-27.5s-24.2,12.8-24.2,27.5C187.2,98.4,195.9,111.2,211.4,111.2z M369.2,131v-67
		c0-18.5-10-30.3-30.8-30.3c-15.5,0-27.1,7.5-33.2,14.7V36.2h-25V131h25V67.2c4.1-5.7,11.8-11.2,21.6-11.2
		c10.6,0,17.5,4.5,17.5,17.7V131H369.2z M437.9,133.4c-31.2,0-50.1-22.8-50.1-49.9c0-26.9,18.9-49.7,50.1-49.7
		c31.4,0,50.3,22.8,50.3,49.7C488.2,110.6,469.4,133.4,437.9,133.4z M437.9,111.2c15.5,0,24.4-12.8,24.4-27.7
		c0-14.7-8.8-27.5-24.4-27.5s-24.2,12.8-24.2,27.5C413.8,98.4,422.4,111.2,437.9,111.2z M531.7,100.6c4.1,6.1,13.4,10.6,21.4,10.6
		c14.5,0,24.2-11,24.2-27.5S567.6,56,553.1,56c-8.1,0-17.3,4.7-21.4,11V100.6z M531.7,131h-25V0h25v48.3
		c7.5-9.6,18.1-14.5,29.3-14.5c24.2,0,42,18.9,42,49.9c0,31.6-18.1,49.7-42,49.7c-11.4,0-21.8-5.1-29.3-14.5V131z M703.8,131h-25
		v-9.8c-6.5,7.7-17.7,12.2-30.1,12.2c-15.1,0-33-10.2-33-31.4c0-22.2,17.9-30.6,33-30.6c12.6,0,23.8,4.1,30.1,11.6V70.1
		c0-9.6-8.3-15.9-20.8-15.9c-10.2,0-19.6,3.7-27.7,11.2l-9.4-16.7c11.6-10.2,26.5-14.9,41.5-14.9c21.6,0,41.5,8.6,41.5,36
		C703.8,69.7,703.8,131,703.8,131z M658.8,116.5c8.1,0,15.9-2.8,20-8.3V96.5c-4.1-5.5-12-8.3-20-8.3c-9.8,0-17.9,5.1-17.9,14.3
		C640.9,111.4,649,116.5,658.8,116.5z M817.5,131v-67c0-18.5-10-30.3-30.8-30.3c-15.5,0-27.1,7.5-33.2,14.7V36.2h-25V131h25V67.2
		c4.1-5.7,11.8-11.2,21.6-11.2c10.6,0,17.5,4.5,17.5,17.7V131H817.5z M935,131l-38.7-51.9l37.5-43h-30.6l-36,42.2V0h-25v131h25
		v-24.4l11.4-12.2l25.1,36.5C903.8,131,935,131,935,131z"/>
</g>
</svg>
