<!-- Shape: donut -->
<svg xmlns:xlink="http://www.w3.org/1999/xlink" fill="none" width="19.204" xmlns="http://www.w3.org/2000/svg" style="-webkit-print-color-adjust:exact" id="screenshot-c40062a5-cc88-8062-8004-161dab6487bd" version="1.1" viewBox="601.498 709 19.204 18" height="18">
    <g id="shape-c40062a5-cc88-8062-8004-161dab6487bd" style="fill:#000000" version="1.1" xmlns:xlink="http://www.w3.org/1999/xlink" x="0px" y="0px" enable-background="new 0 0 256 256" xml:space="preserve" rx="0" ry="0">
    <g id="shape-c40062a5-cc88-8062-8004-161dab65339b" style="fill:#000000" rx="0" ry="0">
      <g id="shape-c40062a5-cc88-8062-8004-161dab65b1ad" style="fill:#000000" rx="0" ry="0">
        <g id="shape-c40062a5-cc88-8062-8004-161dab65b1ae" style="fill:#000000" rx="0" ry="0">
          <g id="shape-c40062a5-cc88-8062-8004-161dab6972e3">
            <g class="fills" id="fills-c40062a5-cc88-8062-8004-161dab6972e3">
              <path rx="0" ry="0" style="fill:#ffffff;fill-opacity:1" d="M610.504,709.012C608.519,709.191,607.038,709.687,605.541,710.672C603.100,712.299,601.619,714.870,601.505,717.694C601.464,718.711,601.602,719.695,601.936,720.664C602.115,721.201,602.497,722.031,602.774,722.478C605.321,726.571,610.708,728.142,615.248,726.124C618.104,724.854,620.114,722.315,620.610,719.345C620.724,718.670,620.732,717.401,620.635,716.774C620.472,715.806,620.252,715.114,619.837,714.260C618.975,712.494,617.526,711.030,615.728,710.110C614.630,709.549,613.678,709.256,612.425,709.077C612.026,709.020,610.830,708.979,610.504,709.012ZZM610.879,710.501C611.350,710.598,611.440,710.663,611.440,710.867C611.440,710.997,611.294,711.160,611.171,711.160C611.049,711.160,609.381,710.794,609.300,710.745C609.170,710.672,609.145,710.411,609.251,710.289C609.357,710.175,609.381,710.183,610.879,710.501ZZM614.093,711.746C614.125,711.762,614.174,711.819,614.207,711.876C614.255,711.965,614.247,712.071,614.150,712.779C614.044,713.528,614.036,713.593,613.946,713.666C613.816,713.772,613.694,713.772,613.564,713.666C613.434,713.560,613.434,713.528,613.572,712.592C613.653,712.014,613.678,711.884,613.751,711.811C613.816,711.729,613.962,711.705,614.093,711.746ZZM617.583,713.064C618.120,713.625,618.202,713.731,618.202,713.861C618.202,714.048,617.933,714.195,617.754,714.097C617.722,714.081,617.461,713.812,617.177,713.511C616.721,713.023,616.664,712.950,616.664,712.828C616.664,712.649,616.770,712.543,616.957,712.543C617.079,712.551,617.120,712.584,617.583,713.064ZZM606.818,713.259C607.502,713.723,607.607,713.821,607.607,713.991C607.607,714.097,607.445,714.252,607.315,714.252C607.201,714.252,605.882,713.397,605.760,713.243C605.663,713.121,605.671,712.991,605.785,712.877C605.956,712.706,606.045,712.738,606.818,713.259ZZM611.513,712.877C611.668,713.072,611.603,713.267,611.359,713.357C611.001,713.487,609.853,713.829,609.756,713.829C609.536,713.829,609.406,713.536,609.536,713.357C609.601,713.267,611.074,712.787,611.294,712.779C611.407,712.779,611.456,712.803,611.513,712.877ZZM616.387,715.074C616.477,715.155,616.501,715.293,616.452,715.423C616.420,715.505,616.355,715.537,615.541,715.871C614.931,716.123,614.858,716.156,614.752,716.115C614.687,716.091,614.613,716.042,614.597,716.009C614.548,715.912,614.548,715.733,614.605,715.659C614.662,715.578,616.045,715.000,616.184,714.992C616.249,714.992,616.338,715.025,616.387,715.074ZZM611.692,715.122C612.099,715.196,612.327,715.269,612.644,715.423C613.344,715.773,613.800,716.319,613.922,716.937C614.125,717.962,613.320,718.963,612.010,719.321C611.546,719.443,610.667,719.443,610.211,719.321C608.966,718.979,608.177,718.101,608.258,717.132C608.307,716.555,608.600,716.058,609.129,715.684C609.861,715.171,610.773,714.968,611.692,715.122ZZM619.813,715.838C619.927,716.229,620.033,716.799,620.073,717.262C620.138,717.913,620.138,717.913,619.911,717.490C619.666,717.051,619.553,716.709,619.553,716.441C619.553,716.205,619.675,715.513,619.707,715.546C619.723,715.562,619.764,715.692,619.813,715.838ZZM602.522,716.229C602.742,717.173,602.717,717.474,602.408,718.263C602.294,718.548,602.205,718.800,602.205,718.833C602.205,718.865,602.188,718.898,602.172,718.914C602.074,718.971,602.074,717.507,602.172,716.913C602.213,716.644,602.408,715.782,602.416,715.798C602.416,715.798,602.465,715.993,602.522,716.229ZZM606.086,716.229C606.200,716.327,606.240,716.465,606.184,716.579C606.159,716.628,605.809,716.937,605.411,717.271C604.621,717.930,604.548,717.962,604.369,717.783C604.247,717.669,604.247,717.498,604.361,717.376C604.410,717.328,604.751,717.026,605.134,716.717C605.581,716.343,605.850,716.148,605.907,716.148C605.948,716.156,606.029,716.188,606.086,716.229ZZM617.827,717.743C618.690,718.239,618.763,718.304,618.690,718.507C618.641,718.638,618.544,718.703,618.413,718.711C618.348,718.711,618.047,718.564,617.608,718.312C616.680,717.783,616.664,717.775,616.664,717.588C616.664,717.474,616.688,717.425,616.762,717.368C616.819,717.319,616.900,717.287,616.949,717.287C616.998,717.287,617.388,717.490,617.827,717.743ZZM606.688,719.061C606.753,719.126,606.786,719.223,606.826,719.484C606.851,719.671,606.916,720.070,606.957,720.379C607.062,721.095,607.030,721.225,606.721,721.225C606.493,721.225,606.460,721.136,606.322,720.159C606.249,719.671,606.192,719.240,606.192,719.215C606.192,719.183,606.232,719.118,606.289,719.069C606.395,718.947,606.574,718.947,606.688,719.061ZZM615.989,719.541C616.029,719.581,616.062,719.663,616.062,719.728C616.062,719.793,615.980,720.232,615.875,720.712C615.679,721.648,615.647,721.713,615.427,721.713C615.281,721.713,615.126,721.583,615.126,721.453C615.126,721.396,615.216,720.957,615.313,720.468C615.517,719.508,615.541,719.459,615.785,719.459C615.858,719.459,615.940,719.492,615.989,719.541ZZM619.756,720.314C618.836,723.243,616.338,725.481,613.165,726.181C612.473,726.335,611.977,726.384,611.098,726.384C609.764,726.384,608.763,726.197,607.607,725.741C605.443,724.887,603.702,723.259,602.790,721.250C602.620,720.867,602.416,720.281,602.441,720.257C602.449,720.249,602.457,720.257,602.457,720.281C602.457,720.354,602.717,720.623,602.888,720.721C602.978,720.769,603.262,720.883,603.523,720.981C604.052,721.168,604.320,721.323,604.564,721.599C604.751,721.811,604.841,721.990,605.028,722.519C605.191,722.999,605.370,723.284,605.663,723.544C606.053,723.902,606.395,723.943,607.217,723.723C607.632,723.617,607.803,723.585,608.096,723.585C608.722,723.577,608.991,723.731,609.536,724.415C609.927,724.903,610.130,725.098,610.398,725.237C610.927,725.505,611.765,725.505,612.311,725.237C612.620,725.082,612.872,724.870,613.189,724.504C613.499,724.146,613.710,723.975,613.922,723.910C613.995,723.886,614.451,723.853,614.939,723.829C616.200,723.780,616.631,723.642,617.046,723.194C617.274,722.942,617.372,722.755,617.551,722.226C617.722,721.713,617.893,721.396,618.145,721.095C618.413,720.778,618.600,720.639,619.129,720.371C619.374,720.241,619.650,720.078,619.732,719.996C619.813,719.923,619.886,719.858,619.894,719.866C619.894,719.866,619.837,720.070,619.756,720.314ZZM610.390,721.176C610.488,721.306,610.488,721.429,610.390,721.542C610.268,721.681,608.820,722.543,608.714,722.543C608.494,722.543,608.356,722.185,608.519,722.039C608.560,722.006,608.918,721.778,609.316,721.534C610.114,721.030,610.244,720.989,610.390,721.176ZZM612.783,721.762C613.759,722.633,613.783,722.657,613.678,722.877C613.613,722.999,613.482,723.056,613.344,723.015C613.238,722.991,612.001,721.892,611.928,721.770C611.831,721.575,612.026,721.315,612.229,721.355C612.311,721.372,612.530,721.534,612.783,721.762ZZ">
              </path>
            </g>
          </g>
        </g>
      </g>
    </g>
  </g>
</svg>